<svg width="17" height="17" viewBox="0 0 17 17" fill="none" xmlns="http://www.w3.org/2000/svg">
<g clip-path="url(#clip0_4406_4612)">
<path d="M14.5112 8.59933C14.8983 8.14106 15.1107 7.56061 15.1109 6.96074C15.1098 6.26921 14.8368 5.60587 14.3509 5.1138C13.865 4.62174 13.2052 4.34041 12.5137 4.33049C12.1602 4.33057 11.8109 4.40625 11.489 4.55243C11.6556 4.82095 11.7828 5.11196 11.8668 5.41659C12.07 5.32412 12.2905 5.27583 12.5137 5.27493C12.9547 5.28478 13.3743 5.46659 13.6831 5.78154C13.9919 6.0965 14.1654 6.51967 14.1665 6.96074C14.1664 7.22411 14.1007 7.48331 13.9754 7.71497C13.8501 7.94662 13.6691 8.14344 13.4487 8.28766C13.2342 8.4361 12.9875 8.53148 12.7289 8.56596C12.4703 8.60044 12.2072 8.57303 11.9612 8.486C12.3818 8.74925 12.762 9.07215 13.0898 9.44459C13.2605 9.40737 13.4268 9.35196 13.5857 9.27932C14.9079 9.61459 16.0554 10.5685 16.0554 11.9332C16.0561 12.0467 16.0336 12.1592 15.9892 12.2637H14.1665C14.1667 12.587 14.1059 12.9075 13.987 13.2082H16.1262C16.674 13.2223 16.9998 12.5754 16.9998 11.9473C16.9998 10.4835 15.9845 9.21321 14.5112 8.59933ZM1.01054 12.2779C0.966157 12.1734 0.943658 12.0609 0.944432 11.9473C0.944432 10.5826 2.09192 9.62876 3.41412 9.29349C3.56547 9.36457 3.7237 9.41995 3.88634 9.45876C4.22139 9.08452 4.6096 8.76154 5.03855 8.50016C4.79261 8.5872 4.52952 8.6146 4.27092 8.58012C4.01233 8.54564 3.76561 8.45026 3.55107 8.30183C3.32868 8.1563 3.14641 7.95723 3.021 7.7229C2.89558 7.48858 2.83104 7.2265 2.8333 6.96074C2.83442 6.51967 3.00788 6.0965 3.31666 5.78154C3.62544 5.46659 4.04509 5.28478 4.48605 5.27493C4.7093 5.27583 4.9298 5.32412 5.13299 5.41659C5.21696 5.11196 5.34418 4.82095 5.51076 4.55243C5.18892 4.40625 4.83954 4.33057 4.48605 4.33049C3.7946 4.34041 3.13476 4.62174 2.64888 5.1138C2.163 5.60587 1.89003 6.26921 1.88886 6.96074C1.88905 7.56061 2.10149 8.14106 2.48858 8.59933C1.01526 9.21321 0 10.4835 0 11.9473C0 12.5754 0.325829 13.2223 0.8736 13.2223H3.01274C2.89392 12.9216 2.83304 12.6012 2.8333 12.2779H1.01054Z" fill="white"/>
<path d="M10.7841 8.40144C11.265 7.84893 11.53 7.14119 11.5302 6.40869C11.5329 5.59726 11.2165 4.81729 10.6494 4.23694C10.0823 3.65659 9.30986 3.32233 8.49859 3.30623C7.68732 3.32233 6.91487 3.65659 6.34776 4.23694C5.78066 4.81729 5.46433 5.59726 5.46696 6.40869C5.46715 7.14119 5.73214 7.84893 6.21307 8.40144C4.48948 9.10504 3.30421 10.5784 3.30421 12.2783C3.30421 12.9725 3.65838 13.695 4.24865 13.695H12.7485C13.3388 13.695 13.693 12.9725 13.693 12.2783C13.693 10.5784 12.5077 9.10504 10.7841 8.40144ZM8.49859 4.25066C9.05936 4.26668 9.59163 4.5014 9.98164 4.90465C10.3717 5.3079 10.5885 5.84769 10.5858 6.40869C10.5854 6.73585 10.5083 7.05836 10.3607 7.35032C10.2131 7.64228 9.99906 7.89555 9.7358 8.08978C9.37846 8.35651 8.9445 8.50061 8.49859 8.50061C8.05269 8.50061 7.61872 8.35651 7.26139 8.08978C6.99812 7.89555 6.78408 7.64228 6.63646 7.35032C6.48884 7.05836 6.41175 6.73585 6.4114 6.40869C6.4087 5.84769 6.62553 5.3079 7.01554 4.90465C7.40556 4.5014 7.93782 4.26668 8.49859 4.25066ZM12.6399 12.7506H4.35726C4.28275 12.6045 4.24544 12.4423 4.24865 12.2783C4.24865 10.6681 5.56613 9.53476 7.11028 9.10504C7.53893 9.3285 8.01519 9.44519 8.49859 9.44519C8.982 9.44519 9.45825 9.3285 9.88691 9.10504C11.4311 9.53476 12.7485 10.6681 12.7485 12.2783C12.7517 12.4423 12.7144 12.6045 12.6399 12.7506Z" fill="white"/>
</g>
<defs>
<clipPath id="clip0_4406_4612">
<rect width="16.4998" height="16.4998" fill="white" transform="scale(1.0303)"/>
</clipPath>
</defs>
</svg>
