<svg width="30" height="24" viewBox="0 0 30 24" fill="none" xmlns="http://www.w3.org/2000/svg">
<path d="M30 10.3632C30 17.8816 23.9664 24 16.552 24L16.5552 23.9968H8.1632V21.7232C8.1632 14.248 12.8272 9.376 18.896 7.6224C18.896 7.6224 18.2272 6.9056 18.0048 6.6672C17.8512 6.5008 17.9888 6.2352 18.2112 6.2608L21.8848 6.696C22.0448 6.7152 22.1136 6.9072 22.0032 7.0224L19.4688 9.7168C19.3152 9.8816 19.0416 9.7648 19.0496 9.5408C19.0624 9.1584 19.0144 7.9664 19.0144 7.9664C16.5712 8.816 12.1376 12.2656 12.1376 19.9696H16.5488C21.776 19.9696 26.0272 15.6576 26.0272 10.3584V4.0256H18.9248C10.6768 4.0256 3.9664 10.8304 3.9664 19.1936V23.9984H0V19.1936C0 8.6112 8.4912 0 18.928 0H30V10.3632Z" fill="#00DA95"/>
</svg>
