<svg width="16" height="11" viewBox="0 0 16 11" fill="none" xmlns="http://www.w3.org/2000/svg">
<path d="M5.44828 8.42674C6.72895 7.34446 8.60514 7.34446 9.88581 8.42674C9.95016 8.48495 9.98755 8.56756 9.98933 8.65428C9.99099 8.74092 9.95651 8.82405 9.8946 8.88475L7.8897 10.9072C7.83092 10.9666 7.75065 11 7.66705 11C7.58345 11 7.50315 10.9666 7.44439 10.9072L5.43851 8.88475C5.37692 8.82405 5.34306 8.74071 5.34476 8.65428C5.3466 8.5676 5.38394 8.4849 5.44828 8.42674ZM2.77248 5.72946C5.53163 3.16506 9.80438 3.16511 12.5636 5.72946C12.6259 5.78959 12.6613 5.87241 12.6622 5.95895C12.6629 6.0453 12.6294 6.12815 12.5684 6.18942L11.4093 7.36033C11.2898 7.47963 11.0972 7.48149 10.9747 7.36521C10.0686 6.54544 8.88939 6.09169 7.66705 6.09176C6.44564 6.09229 5.26776 6.54613 4.36233 7.36521C4.23978 7.48155 4.04625 7.47983 3.92679 7.36033L2.76857 6.18942C2.70749 6.12822 2.67314 6.04536 2.67385 5.95895C2.67466 5.87248 2.71028 5.78957 2.77248 5.72946ZM0.0966804 3.03901C4.32852 -1.01309 11.0045 -1.01293 15.2364 3.03901C15.2977 3.09921 15.3326 3.18167 15.3331 3.26752C15.3336 3.35329 15.2999 3.43616 15.2394 3.49702L14.0792 4.66695C13.9596 4.78705 13.7651 4.78812 13.6436 4.66988C12.0313 3.13846 9.89165 2.28422 7.66705 2.28412C5.44214 2.28413 3.30201 3.13824 1.68946 4.66988C1.56818 4.78825 1.37441 4.78705 1.25489 4.66695L0.0937507 3.49702C0.0333195 3.43614 -0.000480889 3.35326 0 3.26752C0.000565279 3.18167 0.0353778 3.09916 0.0966804 3.03901Z" fill="white"/>
</svg>
