<svg width="86" height="17" viewBox="0 0 86 17" fill="none" xmlns="http://www.w3.org/2000/svg">
<path d="M5.54154 5.61809C2.80266 5.1771 2.62772 4.18214 2.73524 3.47327C2.912 2.30337 4.22586 1.88789 5.14428 1.88789C5.8495 1.88789 7.06314 2.24506 7.89775 3.73932C8.75968 3.5407 9.24441 3.43136 9.87309 3.28922C8.99658 1.12436 7.32008 0.0145919 5.11878 0.0145919C3.08694 0.0145919 0.781755 1.1608 0.670596 3.63181C0.583127 5.57982 2.17944 7.01942 4.73427 7.42396C6.89002 7.76473 7.89592 8.43715 7.95605 9.33189C8.00708 10.0881 7.50049 11.4439 5.13699 11.4439C3.87416 11.4439 2.57852 10.5729 1.87694 8.95832L0 9.37927C0.747133 11.8831 2.79537 13.4029 5.27366 13.4029C6.91007 13.4029 8.07997 12.8963 8.94191 12.0143C9.71273 11.2252 10.1136 10.09 9.9314 8.84898C9.6781 7.12329 8.34967 6.07184 5.54336 5.61991L5.54154 5.61809Z" fill="white"/>
<path d="M29.4734 4.52106C28.6333 3.83042 27.5983 3.45321 26.5195 3.45321C23.8863 3.45321 21.7433 5.68914 21.7433 8.43713C21.7433 11.1851 23.8863 13.4211 26.5195 13.4211C27.5983 13.4211 28.6333 13.0438 29.4734 12.3532V13.2133H31.2939V3.66095H29.4734V4.52106ZM26.6234 11.3892C25.0526 11.3892 23.7733 10.0644 23.7733 8.43531C23.7733 6.80619 25.0526 5.4814 26.6234 5.4814C28.1942 5.4814 29.4734 6.80619 29.4734 8.43531C29.4734 10.0644 28.1942 11.3892 26.6234 11.3892Z" fill="white"/>
<path d="M16.0182 3.45124C14.6442 3.45124 13.7823 3.84121 12.9185 4.55919V3.65898H11.0963V16.947H12.9185V12.2674C13.7823 12.9854 14.8538 13.3754 15.9781 13.3754C18.6569 13.3754 20.8363 11.1504 20.8363 8.4133C20.8363 5.67624 18.8081 3.44942 16.0164 3.44942L16.0182 3.45124ZM12.9404 8.4133C12.9404 6.79694 14.2561 5.48126 15.8743 5.48126C17.4925 5.48126 18.8081 6.79694 18.8081 8.4133C18.8081 10.0297 17.4925 11.3453 15.8743 11.3453C14.2561 11.3453 12.9404 10.0297 12.9404 8.4133Z" fill="white"/>
<path d="M72.2415 4.10185C71.447 3.57156 70.4939 3.28364 69.5172 3.28364C66.8931 3.28364 64.7611 5.32095 64.7611 7.8284C64.7611 10.0643 66.392 12.3713 69.5172 12.3713C70.5012 12.3713 71.4415 12.0889 72.2415 11.5531V12.3021C72.2415 13.6888 71.0187 14.815 69.5172 14.815C68.5295 14.815 67.6548 14.1991 67.1665 13.4611L65.1091 13.933C65.8854 15.6314 67.6712 16.845 69.5172 16.845C72.1394 16.845 74.2715 14.8077 74.2715 12.3003V3.48956H72.2415V4.10185ZM72.0283 8.80514C71.8078 9.2844 71.4233 9.69805 70.9459 9.96775C70.5176 10.2119 70.0256 10.3395 69.519 10.3395C69.0124 10.3395 68.5168 10.2119 68.0904 9.96593C67.6129 9.69623 67.2284 9.2844 67.0079 8.80332C66.8658 8.49535 66.7947 8.16552 66.7947 7.82476C66.7947 6.438 68.0175 5.31184 69.5208 5.31184C71.0242 5.31184 72.2451 6.43983 72.2451 7.82476C72.2451 8.16552 72.1741 8.49535 72.0319 8.80332L72.0283 8.80514Z" fill="white"/>
<path d="M78.2262 4.88005V3.48966H76.1962V13.0366H78.2262V8.2622C78.2262 6.87544 79.5947 5.79666 81.2749 5.74746C81.7906 5.73288 82.2899 5.88595 82.2899 5.88595L82.5104 3.56437C82.5104 3.56437 81.8416 3.51152 81.5992 3.51152C80.3218 3.51152 79.1173 4.00536 78.2262 4.88187V4.88005Z" fill="white"/>
<path d="M37.3267 5.52521C38.513 5.52521 39.5735 6.23043 40.0328 7.32197L40.0911 7.46046L42.0773 7.00672L42.0117 6.8172C41.3156 4.83092 39.4332 3.49701 37.3267 3.49701C34.5896 3.49701 32.3628 5.72201 32.3628 8.45907C32.3628 11.1961 34.5896 13.4211 37.3267 13.4211C39.2765 13.4211 41.0532 12.2731 41.8532 10.4964L41.9425 10.2959L39.9234 9.83307C39.9234 9.83307 39.8542 9.94969 39.8305 9.98796C39.3038 10.8572 38.3453 11.3911 37.3267 11.3911C35.7085 11.3911 34.3928 10.0754 34.3928 8.45907C34.3928 6.84271 35.7085 5.52703 37.3267 5.52703V5.52521Z" fill="white"/>
<path d="M52.6738 7.58797C52.3148 5.20626 50.1991 3.49332 47.7846 3.49332C45.0475 3.49332 42.8207 5.71832 42.8207 8.45538C42.8207 11.1924 45.0475 13.4156 47.7846 13.4156C49.7326 13.4156 51.4966 12.2785 52.3002 10.5145L50.2465 10.048C49.7071 10.879 48.7796 11.3874 47.7846 11.3874C46.4707 11.3874 45.3191 10.5054 44.9619 9.26082H52.6829C52.7722 8.74512 52.7321 7.97976 52.6738 7.58797ZM45.0348 7.44037C45.4539 6.29962 46.5527 5.52151 47.7864 5.52151C49.0201 5.52151 50.1189 6.29962 50.5399 7.44037H45.0348Z" fill="white"/>
<path d="M85.6855 3.48966H83.6554V13.0384H85.6855V3.48966Z" fill="white"/>
<path d="M84.6726 2.65688C85.4063 2.65688 86.001 2.06212 86.001 1.32844C86.001 0.594763 85.4063 0 84.6726 0C83.9389 0 83.3441 0.594763 83.3441 1.32844C83.3441 2.06212 83.9389 2.65688 84.6726 2.65688Z" fill="white"/>
<path d="M62.9506 13.053H65.1829L59.7179 0.568562H58.1125L52.8334 13.053H54.8816L56.1608 9.99155H61.6732L62.9525 13.053H62.9506ZM60.9115 8.17474H56.9171L58.9143 3.39491L60.9115 8.17474Z" fill="white"/>
</svg>
