<svg width="28" height="28" viewBox="0 0 28 28" fill="none" xmlns="http://www.w3.org/2000/svg">
<path d="M22 3C23.6569 3 25 4.34315 25 6V22C25 23.6569 23.6569 25 22 25H6C4.34315 25 3 23.6569 3 22V6C3 4.34315 4.34315 3 6 3H22ZM21.126 7.47363C20.5766 7.48324 19.7331 7.77485 15.6768 9.4502C14.256 10.037 11.4167 11.2509 7.15918 13.0928C6.46774 13.3658 6.10524 13.6334 6.07227 13.8945C6.00905 14.3959 6.73576 14.5524 7.65039 14.8477C8.39605 15.0883 9.39931 15.3696 9.9209 15.3809C10.3939 15.391 10.922 15.1972 11.5049 14.7998C15.4818 12.1341 17.5356 10.7859 17.666 10.7559C17.757 10.7354 17.8833 10.7098 17.9688 10.7852C18.0541 10.8605 18.0452 11.0037 18.0361 11.042C17.9602 11.3511 14.2267 14.7236 14.0117 14.9453C13.1899 15.7928 12.2554 16.3113 13.6973 17.2549C14.9451 18.0714 15.6715 18.5929 16.957 19.4297C17.7784 19.9644 18.4225 20.5978 19.2705 20.5205C19.6608 20.4848 20.0648 20.1208 20.2695 19.0342C20.7534 16.4656 21.704 10.9001 21.9238 8.60645C21.9431 8.40551 21.9189 8.14804 21.8994 8.03516C21.88 7.92227 21.8392 7.76164 21.6914 7.64258C21.5166 7.50173 21.247 7.47159 21.126 7.47363Z" fill="white" fill-opacity="0.6"/>
</svg>
