<svg width="18" height="14" viewBox="0 0 18 14" fill="none" xmlns="http://www.w3.org/2000/svg">
<path d="M18 6.70213C18 6.85449 17.9395 7.0006 17.8317 7.10834C17.724 7.21607 17.5779 7.2766 17.4255 7.2766H0.574468C0.42211 7.2766 0.275991 7.21607 0.168258 7.10834C0.0605241 7.0006 0 6.85449 0 6.70213C0 6.54977 0.0605241 6.40365 0.168258 6.29592C0.275991 6.18818 0.42211 6.12766 0.574468 6.12766H17.4255C17.5779 6.12766 17.724 6.18818 17.8317 6.29592C17.9395 6.40365 18 6.54977 18 6.70213ZM0.574468 1.14894H17.4255C17.5779 1.14894 17.724 1.08841 17.8317 0.980678C17.9395 0.872944 18 0.726827 18 0.574468C18 0.42211 17.9395 0.275991 17.8317 0.168258C17.724 0.0605241 17.5779 0 17.4255 0H0.574468C0.42211 0 0.275991 0.0605241 0.168258 0.168258C0.0605241 0.275991 0 0.42211 0 0.574468C0 0.726827 0.0605241 0.872944 0.168258 0.980678C0.275991 1.08841 0.42211 1.14894 0.574468 1.14894ZM17.4255 12.2553H0.574468C0.42211 12.2553 0.275991 12.3158 0.168258 12.4236C0.0605241 12.5313 0 12.6774 0 12.8298C0 12.9821 0.0605241 13.1283 0.168258 13.236C0.275991 13.3437 0.42211 13.4043 0.574468 13.4043H17.4255C17.5779 13.4043 17.724 13.3437 17.8317 13.236C17.9395 13.1283 18 12.9821 18 12.8298C18 12.6774 17.9395 12.5313 17.8317 12.4236C17.724 12.3158 17.5779 12.2553 17.4255 12.2553Z" fill="white"/>
</svg>
