<svg width="28" height="28" viewBox="0 0 28 28" fill="none" xmlns="http://www.w3.org/2000/svg">
<path d="M19.552 20.0085C19.5546 20.013 19.5578 20.0185 19.5621 20.0257L19.5624 20.0258H19.3712C19.2436 20.0258 19.116 20.0258 18.9883 20.0257C18.529 20.0256 18.0697 20.0255 17.6104 20.0269C17.5594 20.027 17.5268 20.013 17.4959 19.9714C17.1324 19.4847 16.7684 18.9985 16.4043 18.5122C16.1426 18.1627 15.8809 17.8132 15.6194 17.4635C15.2826 17.013 14.9463 16.5623 14.6099 16.1116C14.3342 15.7423 14.0586 15.3729 13.7827 15.0037C13.1959 14.2187 12.6087 13.4341 12.0213 12.6495C11.7944 12.3465 11.5674 12.0436 11.3403 11.7406C11.0251 11.32 10.7099 10.8994 10.395 10.4786C9.89011 9.80365 9.38567 9.12826 8.88123 8.45288C8.78032 8.31777 8.67941 8.18267 8.5785 8.04757C8.5752 8.04318 8.57253 8.03836 8.5686 8.03128C8.56613 8.02684 8.56316 8.0215 8.55923 8.01481C8.56853 8.01415 8.57709 8.01337 8.58518 8.01263C8.60056 8.01124 8.61421 8.01 8.62792 8.01C8.78555 8.00996 8.9432 8.00996 9.10085 8.00996C9.57368 8.00996 10.0465 8.00996 10.5193 8.00903C10.5626 8.00889 10.5902 8.0217 10.6166 8.05707C11.242 8.89589 11.8681 9.73403 12.495 10.5716C12.8345 11.0252 13.1742 11.4786 13.5139 11.932C13.8813 12.4224 14.2487 12.9128 14.6159 13.4034C14.9014 13.785 15.1865 14.1669 15.4716 14.5487C15.7083 14.8658 15.945 15.1829 16.182 15.4998C16.5117 15.9407 16.8415 16.3814 17.1714 16.8222C17.4559 17.2024 17.7405 17.5827 18.025 17.963C18.4191 18.49 18.8131 19.0172 19.207 19.5444C19.3187 19.6938 19.4304 19.8433 19.5421 19.9928C19.5452 19.9969 19.5479 20.0014 19.552 20.0085Z" fill="white" fill-opacity="0.6"/>
<path fill-rule="evenodd" clip-rule="evenodd" d="M5.69388 3C4.20609 3 3 4.20609 3 5.69388V22.3061C3 23.7939 4.20609 25 5.69388 25H22.3061C23.7939 25 25 23.7939 25 22.3061V5.69388C25 4.20609 23.7939 3 22.3061 3H5.69388ZM15.4175 12.8674L20.796 7.0572L20.7848 7.04192C20.6874 7.04192 20.5901 7.04198 20.4927 7.04203C20.1867 7.04221 19.8807 7.04239 19.5746 7.04082C19.5219 7.04054 19.4854 7.05582 19.4498 7.0945C19.1118 7.46119 18.773 7.82721 18.4342 8.1932C18.2645 8.37662 18.0947 8.56003 17.925 8.74352C17.7088 8.97745 17.4926 9.21149 17.2765 9.44554C17.0127 9.73122 16.7489 10.0169 16.4848 10.3024C16.19 10.621 15.8947 10.9394 15.5995 11.2577C15.5258 11.3371 15.4521 11.4166 15.3784 11.4961C15.2287 11.6574 15.0789 11.8188 14.9273 11.9821L14.8344 12.0822C14.8289 12.0755 14.8236 12.0692 14.8185 12.0632C14.8076 12.0503 14.7977 12.0386 14.7885 12.0264C14.5873 11.7572 14.3861 11.488 14.185 11.2188C13.8271 10.74 13.4693 10.2611 13.1112 9.78248C12.914 9.5189 12.7166 9.2554 12.5193 8.99191C12.0482 8.36293 11.5772 7.73398 11.1074 7.104C11.0729 7.05789 11.0399 7.04082 10.9838 7.04082C9.7635 7.042 8.54324 7.04197 7.32298 7.04193C7.11955 7.04193 6.91612 7.04192 6.71269 7.04192H6.62529C6.63923 7.0612 6.65206 7.0791 6.66421 7.09605C6.68719 7.1281 6.70773 7.15675 6.7288 7.18494C6.9338 7.45872 7.13889 7.73246 7.34399 8.0062C7.69745 8.47796 8.05093 8.94974 8.40397 9.42184C8.70832 9.82872 9.01226 10.2359 9.3162 10.6431C9.5889 11.0084 9.8616 11.3737 10.1346 11.7389C10.8721 12.7254 11.6102 13.7116 12.3489 14.6972C12.3707 14.7262 12.3747 14.7423 12.3477 14.7714C12.0309 15.1126 11.7148 15.4545 11.3987 15.7963C11.2065 16.0041 11.0144 16.2118 10.8222 16.4194C10.4571 16.8136 10.0918 17.2075 9.7265 17.6014C9.39918 17.9544 9.07185 18.3074 8.74464 18.6606C8.09426 19.3626 7.44429 20.0649 6.79432 20.7672C6.7523 20.8126 6.71057 20.8585 6.6656 20.9079C6.64207 20.9338 6.61765 20.9606 6.59184 20.9889H6.67663C6.76898 20.9889 6.86132 20.9889 6.95367 20.9888C7.24646 20.9887 7.53925 20.9885 7.83204 20.9899C7.87953 20.99 7.9127 20.9767 7.94505 20.9414C8.17959 20.6862 8.41504 20.4319 8.6505 20.1776C8.73231 20.0892 8.81413 20.0008 8.89592 19.9124C9.14008 19.6484 9.38418 19.3844 9.62827 19.1204C10.0151 18.702 10.4019 18.2836 10.789 17.8654C11.1922 17.4297 11.5956 16.9942 11.999 16.5586C12.2879 16.2467 12.5767 15.9348 12.8655 15.6229C12.8868 15.6001 12.9073 15.5766 12.9286 15.5524C12.9392 15.5404 12.95 15.5281 12.9611 15.5156C13.1032 15.7059 13.2449 15.8955 13.3861 16.0847C13.8796 16.7453 14.3686 17.3999 14.8578 18.0541C15.0439 18.303 15.2301 18.5518 15.4162 18.8007C15.9513 19.5161 16.4865 20.2315 17.0207 20.9475C17.0489 20.9852 17.0804 20.9893 17.1208 20.9893C18.1441 20.9889 19.1673 20.9889 20.1906 20.9888C20.5979 20.9888 21.0052 20.9888 21.4125 20.9888C21.4269 20.9888 21.4413 20.9878 21.4592 20.9866C21.4682 20.986 21.478 20.9853 21.4891 20.9846C19.5405 18.3796 17.5984 15.7832 15.6541 13.1837L15.4175 12.8674Z" fill="white" fill-opacity="0.6"/>
</svg>
