<svg width="86" height="17" viewBox="0 0 86 17" fill="none" xmlns="http://www.w3.org/2000/svg">
<path d="M5.54154 5.61815C2.80266 5.17716 2.62772 4.1822 2.73523 3.47333C2.912 2.30343 4.22586 1.88795 5.14428 1.88795C5.8495 1.88795 7.06314 2.24512 7.89775 3.73938C8.75968 3.54076 9.24441 3.43142 9.87309 3.28928C8.99658 1.12442 7.32008 0.0146535 5.11877 0.0146535C3.08694 0.0146535 0.781755 1.16086 0.670596 3.63187C0.583127 5.57988 2.17944 7.01948 4.73427 7.42403C6.89002 7.76479 7.89592 8.43721 7.95605 9.33195C8.00708 10.0882 7.50048 11.444 5.13699 11.444C3.87416 11.444 2.57852 10.5729 1.87694 8.95838L0 9.37933C0.747133 11.8831 2.79537 13.4029 5.27366 13.4029C6.91007 13.4029 8.07997 12.8963 8.94191 12.0143C9.71273 11.2253 10.1136 10.09 9.9314 8.84904C9.6781 7.12335 8.34967 6.0719 5.54336 5.61997L5.54154 5.61815Z" fill="#00DA95"/>
<path d="M29.4734 4.52103C28.6333 3.83039 27.5983 3.45318 26.5195 3.45318C23.8863 3.45318 21.7433 5.68911 21.7433 8.4371C21.7433 11.1851 23.8863 13.421 26.5195 13.421C27.5983 13.421 28.6333 13.0438 29.4734 12.3532V13.2133H31.2939V3.66092H29.4734V4.52103ZM26.6234 11.3892C25.0526 11.3892 23.7733 10.0644 23.7733 8.43528C23.7733 6.80616 25.0526 5.48137 26.6234 5.48137C28.1942 5.48137 29.4734 6.80616 29.4734 8.43528C29.4734 10.0644 28.1942 11.3892 26.6234 11.3892Z" fill="#00DA95"/>
<path d="M16.0182 3.4513C14.6442 3.4513 13.7823 3.84127 12.9185 4.55925V3.65904H11.0963V16.9471H12.9185V12.2675C13.7823 12.9854 14.8538 13.3754 15.9781 13.3754C18.6569 13.3754 20.8363 11.1504 20.8363 8.41336C20.8363 5.6763 18.8081 3.44948 16.0164 3.44948L16.0182 3.4513ZM12.9404 8.41336C12.9404 6.797 14.2561 5.48132 15.8743 5.48132C17.4925 5.48132 18.8081 6.797 18.8081 8.41336C18.8081 10.0297 17.4925 11.3454 15.8743 11.3454C14.2561 11.3454 12.9404 10.0297 12.9404 8.41336Z" fill="#00DA95"/>
<path d="M72.2454 4.10169C71.4509 3.57141 70.4979 3.28349 69.5211 3.28349C66.8971 3.28349 64.765 5.32079 64.765 7.82825C64.765 10.0642 66.3959 12.3712 69.5211 12.3712C70.5052 12.3712 71.4455 12.0887 72.2454 11.553V12.3019C72.2454 13.6887 71.0227 14.8149 69.5211 14.8149C68.5335 14.8149 67.6588 14.1989 67.1704 13.4609L65.113 13.9329C65.8893 15.6312 67.6752 16.8449 69.5211 16.8449C72.1434 16.8449 74.2755 14.8076 74.2755 12.3001V3.48941H72.2454V4.10169ZM72.0322 8.80499C71.8117 9.28424 71.4272 9.6979 70.9498 9.9676C70.5216 10.2118 70.0295 10.3393 69.523 10.3393C69.0164 10.3393 68.5207 10.2118 68.0943 9.96578C67.6169 9.69608 67.2324 9.28424 67.0119 8.80316C66.8697 8.4952 66.7986 8.16537 66.7986 7.8246C66.7986 6.43785 68.0214 5.31168 69.5248 5.31168C71.0282 5.31168 72.2491 6.43967 72.2491 7.8246C72.2491 8.16537 72.178 8.4952 72.0359 8.80316L72.0322 8.80499Z" fill="#00DA95"/>
<path d="M78.2302 4.88002V3.48962H76.2001V13.0365H78.2302V8.26216C78.2302 6.87541 79.5987 5.79663 81.2788 5.74742C81.7945 5.73285 82.2938 5.88592 82.2938 5.88592L82.5143 3.56434C82.5143 3.56434 81.8455 3.51149 81.6032 3.51149C80.3258 3.51149 79.1212 4.00533 78.2302 4.88184V4.88002Z" fill="#00DA95"/>
<path d="M37.3267 5.52545C38.513 5.52545 39.5735 6.23067 40.0328 7.32222L40.0911 7.46071L42.0773 7.00696L42.0117 6.81745C41.3156 4.83117 39.4332 3.49726 37.3267 3.49726C34.5896 3.49726 32.3628 5.72226 32.3628 8.45932C32.3628 11.1964 34.5896 13.4214 37.3267 13.4214C39.2765 13.4214 41.0532 12.2733 41.8532 10.4966L41.9425 10.2962L39.9234 9.83331C39.9234 9.83331 39.8542 9.94994 39.8305 9.9882C39.3038 10.8574 38.3453 11.3914 37.3267 11.3914C35.7085 11.3914 34.3928 10.0757 34.3928 8.45932C34.3928 6.84296 35.7085 5.52728 37.3267 5.52728V5.52545Z" fill="#00DA95"/>
<path d="M52.6777 7.5881C52.3187 5.20638 50.203 3.49344 47.7885 3.49344C45.0515 3.49344 42.8247 5.71844 42.8247 8.4555C42.8247 11.1926 45.0515 13.4157 47.7885 13.4157C49.7365 13.4157 51.5005 12.2786 52.3041 10.5147L50.2504 10.0482C49.711 10.8791 48.7835 11.3875 47.7885 11.3875C46.4747 11.3875 45.323 10.5056 44.9658 9.26095H52.6868C52.7761 8.74524 52.736 7.97989 52.6777 7.5881ZM45.0387 7.44049C45.4578 6.29975 46.5567 5.52164 47.7904 5.52164C49.024 5.52164 50.1229 6.29975 50.5438 7.44049H45.0387Z" fill="#00DA95"/>
<path d="M85.6894 3.48962H83.6594V13.0384H85.6894V3.48962Z" fill="#00DA95"/>
<path d="M84.6726 2.65688C85.4063 2.65688 86.001 2.06212 86.001 1.32844C86.001 0.594763 85.4063 0 84.6726 0C83.9389 0 83.3441 0.594763 83.3441 1.32844C83.3441 2.06212 83.9389 2.65688 84.6726 2.65688Z" fill="#00DA95"/>
<path d="M62.9506 13.0528H65.1829L59.7179 0.568408H58.1125L52.8334 13.0528H54.8816L56.1608 9.9914H61.6732L62.9525 13.0528H62.9506ZM60.9115 8.17459H56.9171L58.9143 3.39476L60.9115 8.17459Z" fill="#00DA95"/>
</svg>
