<svg width="24" height="24" viewBox="0 0 24 24" fill="none" xmlns="http://www.w3.org/2000/svg">
<path d="M11.6893 3.31067C13.6593 3.31067 15.5709 3.98012 17.1105 5.20924C18.6501 6.43835 19.7263 8.15416 20.1627 10.0753M15.443 19.8366C13.6662 20.6876 11.653 20.9097 9.73353 20.4663C7.81402 20.0228 6.10217 18.9403 4.87872 17.3962C3.65526 15.8521 2.99283 13.9381 3.00006 11.9681C3.00729 9.99801 3.68375 8.0889 4.91851 6.55382" stroke="black" stroke-width="1.5" stroke-linecap="round"/>
<path d="M13.2405 17.079C12.2582 17.3791 11.2099 17.3878 10.2226 17.1042C9.23536 16.8205 8.35159 16.2566 7.67838 15.4808C7.00517 14.705 6.57142 13.7506 6.4297 12.7332C6.28797 11.7159 6.44435 10.6793 6.87988 9.749C7.31542 8.81873 8.01141 8.03475 8.88352 7.49206C9.75563 6.94937 10.7665 6.67127 11.7934 6.69146C12.8204 6.71165 13.8195 7.02927 14.6696 7.60582C15.5197 8.18236 16.1844 8.99309 16.583 9.93976" stroke="black" stroke-width="1.5" stroke-linecap="round"/>
<path d="M18.3007 12.5039L18.4058 12.7881C18.8018 13.86 19.6457 14.7051 20.716 15.1017L20.9998 15.2069L20.716 15.3121C19.6457 15.7087 18.8018 16.5538 18.4058 17.6256L18.3007 17.9099L18.1957 17.6256C17.7997 16.5538 16.9558 15.7087 15.8855 15.3121L15.6016 15.2069L15.8855 15.1017C16.9558 14.7051 17.7997 13.86 18.1957 12.7881L18.3007 12.5039Z" stroke="black" stroke-width="1.5" stroke-linecap="round" stroke-linejoin="round"/>
<path d="M11.8772 10.21C12.1441 11.0884 12.8305 11.7758 13.7075 12.0432C12.8305 12.3105 12.1441 12.9979 11.8772 13.8763C11.6102 12.9979 10.9239 12.3105 10.0469 12.0432C10.9239 11.7758 11.6102 11.0884 11.8772 10.21Z" stroke="black" stroke-width="1.5" stroke-linecap="round" stroke-linejoin="round"/>
</svg>
