<svg width="13" height="13" viewBox="0 0 13 13" fill="none" xmlns="http://www.w3.org/2000/svg">
<path opacity="0.8" d="M4.5 8.5V11.1667C4.5 11.903 5.09695 12.5 5.83333 12.5H11.1667C11.903 12.5 12.5 11.903 12.5 11.1667V5.83333C12.5 5.09695 11.903 4.5 11.1667 4.5H8.5M4.5 8.5H7.16667C7.90305 8.5 8.5 7.90305 8.5 7.16667V4.5M4.5 8.5H1.83333C1.09695 8.5 0.5 7.90305 0.5 7.16667V1.83333C0.5 1.09695 1.09695 0.5 1.83333 0.5H7.16667C7.90305 0.5 8.5 1.09695 8.5 1.83333V4.5" stroke="white" stroke-linecap="round"/>
</svg>
