<svg width="24" height="20" viewBox="0 0 24 20" fill="none" xmlns="http://www.w3.org/2000/svg">
<path d="M21 0C22.6569 0 24 1.34315 24 3V17C24 18.6569 22.6569 20 21 20H3C1.34315 20 6.44266e-08 18.6569 0 17V3C0 1.34315 1.34315 0 3 0H21ZM19.6494 6.625C19.4423 6.26631 18.9837 6.14349 18.625 6.35059L12.625 9.81445C12.2382 10.0377 11.7618 10.0377 11.375 9.81445L5.375 6.35059C5.0163 6.14349 4.55771 6.26632 4.35059 6.625C4.14349 6.9837 4.26632 7.44229 4.625 7.64941L10.625 11.1133C11.4759 11.6045 12.5241 11.6045 13.375 11.1133L19.375 7.64941C19.7337 7.44229 19.8565 6.9837 19.6494 6.625Z" fill="white" fill-opacity="0.6"/>
</svg>
