<svg width="28" height="28" viewBox="0 0 28 28" fill="none" xmlns="http://www.w3.org/2000/svg">
<path d="M22 3C23.6569 3 25 4.34315 25 6V22C25 23.6569 23.6569 25 22 25H6C4.34315 25 3 23.6569 3 22V6C3 4.34315 4.34315 3 6 3H22ZM21.1279 7.47363C20.5786 7.48324 19.7351 7.77485 15.6787 9.4502C14.2579 10.037 11.4186 11.2509 7.16113 13.0928C6.46969 13.3658 6.10719 13.6334 6.07422 13.8945C6.01101 14.3959 6.73771 14.5524 7.65234 14.8477C8.39801 15.0883 9.40126 15.3696 9.92285 15.3809C10.3959 15.391 10.924 15.1972 11.5068 14.7998C15.4837 12.1341 17.5376 10.7859 17.668 10.7559C17.7589 10.7354 17.8853 10.7098 17.9707 10.7852C18.0561 10.8605 18.0471 11.0037 18.0381 11.042C17.9621 11.3511 14.2286 14.7236 14.0137 14.9453C13.1919 15.7928 12.2574 16.3113 13.6992 17.2549C14.9471 18.0714 15.6734 18.5929 16.959 19.4297C17.7803 19.9644 18.4245 20.5978 19.2725 20.5205C19.6627 20.4848 20.0667 20.1208 20.2715 19.0342C20.7553 16.4656 21.7059 10.9001 21.9258 8.60645C21.945 8.40551 21.9208 8.14804 21.9014 8.03516C21.8819 7.92227 21.8411 7.76164 21.6934 7.64258C21.5185 7.50173 21.249 7.47159 21.1279 7.47363Z" fill="white" fill-opacity="0.8"/>
</svg>
