<svg width="24" height="24" viewBox="0 0 24 24" fill="none" xmlns="http://www.w3.org/2000/svg">
<g opacity="0.8">
<path d="M9.74648 7.40137L5.20047 7.75139L3.25781 9.69404C4.47492 10.4172 5.64587 11.2152 6.76418 12.0835C8.80686 13.6793 10.6467 15.5187 12.2426 17.5614C13.113 18.6781 13.9111 19.8497 14.632 21.0683L16.5747 19.1256L16.9342 14.5791" stroke="white" stroke-width="1.2" stroke-linecap="round" stroke-linejoin="round"/>
<path d="M6.48532 12.6469C7.45006 10.5349 8.71303 8.57229 10.235 6.81886C10.235 6.81886 15.3149 1.40846 20.7252 3.58425C22.901 8.85858 17.4906 14.065 17.4906 14.065C15.735 15.5841 13.7728 16.8458 11.6626 17.8137C10.9874 18.1743 10.2697 18.4492 9.52596 18.6304L5.64062 14.7451C5.87121 14.0262 6.15327 13.3249 6.48532 12.6469Z" stroke="white" stroke-width="1.2" stroke-linecap="round" stroke-linejoin="round"/>
<path d="M14.5273 4.19629L20.1416 9.81061" stroke="white" stroke-width="1.2" stroke-linecap="round" stroke-linejoin="round"/>
<path d="M3.85156 17.8818L6.1925 20.213" stroke="white" stroke-width="1.2" stroke-linecap="round" stroke-linejoin="round"/>
</g>
</svg>
