<svg width="114" height="23" viewBox="0 0 114 23" fill="none" xmlns="http://www.w3.org/2000/svg">
<path d="M7.34551 7.44698C3.71502 6.86243 3.48314 5.54357 3.62565 4.60395C3.85995 3.0532 5.60152 2.50247 6.81893 2.50247C7.75373 2.50247 9.36245 2.9759 10.4687 4.95661C11.6113 4.69332 12.2538 4.54839 13.0871 4.35998C11.9253 1.49038 9.70303 0.0193421 6.78512 0.0193421C4.09185 0.0193421 1.03624 1.53869 0.888899 4.81409C0.772956 7.39625 2.88893 9.30449 6.27545 9.84073C9.13297 10.2924 10.4663 11.1837 10.546 12.3698C10.6137 13.3722 9.94216 15.1693 6.80927 15.1693C5.13533 15.1693 3.41792 14.0147 2.48796 11.8746L0 12.4326C0.990352 15.7514 3.70536 17.766 6.99043 17.766C9.15954 17.766 10.7103 17.0945 11.8528 15.9254C12.8746 14.8794 13.406 13.3746 13.1644 11.7296C12.8287 9.44217 11.0678 8.04844 7.34793 7.4494L7.34551 7.44698Z" fill="#00DA95"/>
<path d="M39.0707 5.99283C37.9571 5.07736 36.5851 4.57735 35.1552 4.57735C31.6648 4.57735 28.8242 7.54116 28.8242 11.1837C28.8242 14.8263 31.6648 17.7901 35.1552 17.7901C36.5851 17.7901 37.9571 17.2901 39.0707 16.3746V17.5147H41.4838V4.85272H39.0707V5.99283ZM35.2929 15.0968C33.2107 15.0968 31.515 13.3408 31.515 11.1813C31.515 9.02185 33.2107 7.26579 35.2929 7.26579C37.375 7.26579 39.0707 9.02185 39.0707 11.1813C39.0707 13.3408 37.375 15.0968 35.2929 15.0968Z" fill="#00DA95"/>
<path d="M21.234 4.57475C19.4128 4.57475 18.2702 5.09166 17.1253 6.04336V4.85011H14.7098V22.4639H17.1253V16.2609C18.2702 17.2126 19.6906 17.7295 21.1809 17.7295C24.7317 17.7295 27.6206 14.7802 27.6206 11.1521C27.6206 7.52406 24.9322 4.57233 21.2316 4.57233L21.234 4.57475ZM17.1543 11.1521C17.1543 9.00959 18.8983 7.2656 21.0432 7.2656C23.1882 7.2656 24.9322 9.00959 24.9322 11.1521C24.9322 13.2947 23.1882 15.0387 21.0432 15.0387C18.8983 15.0387 17.1543 13.2947 17.1543 11.1521Z" fill="#00DA95"/>
<path d="M95.7613 5.43714C94.7081 4.73424 93.4448 4.35259 92.1501 4.35259C88.6718 4.35259 85.8457 7.05311 85.8457 10.3768C85.8457 13.3406 88.0076 16.3986 92.1501 16.3986C93.4545 16.3986 94.7009 16.0242 95.7613 15.3141V16.3069C95.7613 18.145 94.1405 19.6378 92.1501 19.6378C90.8409 19.6378 89.6815 18.8214 89.0342 17.8431L86.3071 18.4687C87.3361 20.72 89.7032 22.3287 92.1501 22.3287C95.626 22.3287 98.4522 19.6282 98.4522 16.3044V4.62554H95.7613V5.43714ZM95.4787 11.6715C95.1864 12.3068 94.6767 12.8551 94.0439 13.2126C93.4762 13.5363 92.8241 13.7054 92.1526 13.7054C91.481 13.7054 90.824 13.5363 90.2588 13.2102C89.626 12.8527 89.1163 12.3068 88.824 11.6691C88.6356 11.2609 88.5414 10.8237 88.5414 10.372C88.5414 8.53381 90.1622 7.04103 92.155 7.04103C94.1478 7.04103 95.7661 8.53622 95.7661 10.372C95.7661 10.8237 95.6719 11.2609 95.4835 11.6691L95.4787 11.6715Z" fill="#00DA95"/>
<path d="M103.693 6.4686V4.62558H101.002V17.2803H103.693V10.9518C103.693 9.11356 105.507 7.68359 107.734 7.61838C108.418 7.59905 109.08 7.80195 109.08 7.80195L109.372 4.72462C109.372 4.72462 108.485 4.65457 108.164 4.65457C106.471 4.65457 104.874 5.30917 103.693 6.47102V6.4686Z" fill="#00DA95"/>
<path d="M49.4792 7.32382C51.0516 7.32382 52.4575 8.25861 53.0662 9.70549L53.1435 9.88907L55.7763 9.28761L55.6894 9.0364C54.7667 6.40352 52.2715 4.63538 49.4792 4.63538C45.8511 4.63538 42.8994 7.58469 42.8994 11.2128C42.8994 14.8408 45.8511 17.7901 49.4792 17.7901C52.0637 17.7901 54.4188 16.2684 55.4792 13.9133L55.5976 13.6476L52.9212 13.034C52.9212 13.034 52.8294 13.1886 52.798 13.2394C52.1 14.3915 50.8294 15.0993 49.4792 15.0993C47.3342 15.0993 45.5902 13.3553 45.5902 11.2128C45.5902 9.07022 47.3342 7.32623 49.4792 7.32623V7.32382Z" fill="#00DA95"/>
<path d="M69.8236 10.058C69.3477 6.90092 66.5433 4.63036 63.3428 4.63036C59.7147 4.63036 56.763 7.57967 56.763 11.2077C56.763 14.8358 59.7147 17.7827 63.3428 17.7827C65.925 17.7827 68.2632 16.2754 69.3284 13.9372L66.6061 13.3189C65.8911 14.4203 64.6617 15.0943 63.3428 15.0943C61.6012 15.0943 60.0746 13.9252 59.6012 12.2754H69.8356C69.954 11.5918 69.9009 10.5773 69.8236 10.058ZM59.6978 9.86231C60.2534 8.35021 61.7099 7.3188 63.3452 7.3188C64.9805 7.3188 66.437 8.35021 66.995 9.86231H59.6978Z" fill="#00DA95"/>
<path d="M113.584 4.62558H110.894V17.2828H113.584V4.62558Z" fill="#00DA95"/>
<path d="M112.239 3.52179C113.212 3.52179 114 2.73341 114 1.76089C114 0.788379 113.212 0 112.239 0C111.267 0 110.478 0.788379 110.478 1.76089C110.478 2.73341 111.267 3.52179 112.239 3.52179Z" fill="#00DA95"/>
<path d="M83.442 17.3021H86.401L79.1569 0.753608H77.0289L70.0312 17.3021H72.7462L74.4419 13.2441H81.7488L83.4444 17.3021H83.442ZM80.7391 10.8359H75.4443L78.0917 4.50004L80.7391 10.8359Z" fill="#00DA95"/>
</svg>
