<svg width="40" height="32" viewBox="0 0 40 32" fill="none" xmlns="http://www.w3.org/2000/svg">
<path d="M40 13.8176C40 23.8421 31.9552 32 22.0693 32L22.0736 31.9957H10.8843V28.9643C10.8843 18.9973 17.1029 12.5013 25.1947 10.1632C25.1947 10.1632 24.3029 9.20747 24.0064 8.8896C23.8016 8.66773 23.9851 8.3136 24.2816 8.34773L29.1797 8.928C29.3931 8.9536 29.4848 9.2096 29.3376 9.3632L25.9584 12.9557C25.7536 13.1755 25.3888 13.0197 25.3995 12.7211C25.4165 12.2112 25.3525 10.6219 25.3525 10.6219C22.0949 11.7547 16.1835 16.3541 16.1835 26.6261H22.0651C29.0347 26.6261 34.7029 20.8768 34.7029 13.8112V5.36747H25.2331C14.2357 5.36747 5.28853 14.4405 5.28853 25.5915V31.9979H0V25.5915C0 11.4816 11.3216 0 25.2373 0H40V13.8176Z" fill="#00DA95"/>
</svg>
