<svg width="114" height="23" viewBox="0 0 114 23" fill="none" xmlns="http://www.w3.org/2000/svg">
<path d="M7.34551 7.447C3.71502 6.86245 3.48314 5.54359 3.62565 4.60396C3.85995 3.05322 5.60153 2.50248 6.81893 2.50248C7.75373 2.50248 9.36245 2.97592 10.4687 4.95662C11.6113 4.69333 12.2538 4.5484 13.0871 4.36C11.9253 1.49039 9.70303 0.0193574 6.78512 0.0193574C4.09185 0.0193574 1.03624 1.5387 0.888899 4.81411C0.772956 7.39627 2.88893 9.30451 6.27545 9.84075C9.13297 10.2924 10.4663 11.1838 10.546 12.3698C10.6137 13.3722 9.94216 15.1693 6.80927 15.1693C5.13533 15.1693 3.41792 14.0147 2.48796 11.8746L0 12.4326C0.990352 15.7515 3.70536 17.766 6.99043 17.766C9.15954 17.766 10.7103 17.0945 11.8528 15.9254C12.8746 14.8795 13.406 13.3746 13.1644 11.7297C12.8287 9.44219 11.0678 8.04845 7.34793 7.44941L7.34551 7.447Z" fill="white"/>
<path d="M39.0707 5.99284C37.9571 5.07737 36.5851 4.57736 35.1552 4.57736C31.6648 4.57736 28.8242 7.54117 28.8242 11.1837C28.8242 14.8263 31.6648 17.7901 35.1552 17.7901C36.5851 17.7901 37.9571 17.2901 39.0707 16.3746V17.5147H41.4838V4.85273H39.0707V5.99284ZM35.2929 15.0968C33.2107 15.0968 31.515 13.3408 31.515 11.1813C31.515 9.02187 33.2107 7.26581 35.2929 7.26581C37.375 7.26581 39.0707 9.02187 39.0707 11.1813C39.0707 13.3408 37.375 15.0968 35.2929 15.0968Z" fill="white"/>
<path d="M21.2301 4.57476C19.4089 4.57476 18.2663 5.09168 17.1214 6.04338V4.85013H14.7059V22.4639H17.1214V16.2609C18.2663 17.2126 19.6866 17.7295 21.177 17.7295C24.7278 17.7295 27.6167 14.7802 27.6167 11.1521C27.6167 7.52408 24.9282 4.57235 21.2277 4.57235L21.2301 4.57476ZM17.1504 11.1521C17.1504 9.0096 18.8943 7.26562 21.0393 7.26562C23.1843 7.26562 24.9283 9.0096 24.9283 11.1521C24.9283 13.2947 23.1843 15.0387 21.0393 15.0387C18.8943 15.0387 17.1504 13.2947 17.1504 11.1521Z" fill="white"/>
<path d="M95.7613 5.43717C94.7081 4.73427 93.4448 4.35262 92.1501 4.35262C88.6718 4.35262 85.8457 7.05314 85.8457 10.3769C85.8457 13.3407 88.0076 16.3987 92.1501 16.3987C93.4545 16.3987 94.7009 16.0243 95.7613 15.3141V16.3069C95.7613 18.1451 94.1405 19.6379 92.1501 19.6379C90.8409 19.6379 89.6815 18.8214 89.0342 17.8431L86.3071 18.4688C87.3361 20.72 89.7032 22.3287 92.1501 22.3287C95.626 22.3287 98.4522 19.6282 98.4522 16.3045V4.62557H95.7613V5.43717ZM95.4787 11.6716C95.1864 12.3068 94.6767 12.8552 94.0439 13.2126C93.4762 13.5363 92.8241 13.7054 92.1526 13.7054C91.481 13.7054 90.824 13.5363 90.2588 13.2102C89.626 12.8527 89.1163 12.3068 88.824 11.6691C88.6356 11.2609 88.5414 10.8237 88.5414 10.372C88.5414 8.53384 90.1622 7.04106 92.155 7.04106C94.1478 7.04106 95.7661 8.53625 95.7661 10.372C95.7661 10.8237 95.6719 11.2609 95.4835 11.6691L95.4787 11.6716Z" fill="white"/>
<path d="M103.693 6.46868V4.62566H101.002V17.2804H103.693V10.9518C103.693 9.11364 105.507 7.68367 107.734 7.61845C108.418 7.59913 109.08 7.80203 109.08 7.80203L109.372 4.72469C109.372 4.72469 108.485 4.65464 108.164 4.65464C106.471 4.65464 104.874 5.30924 103.693 6.47109V6.46868Z" fill="white"/>
<path d="M49.4792 7.32386C51.0516 7.32386 52.4575 8.25866 53.0662 9.70554L53.1435 9.88912L55.7763 9.28766L55.6894 9.03645C54.7667 6.40356 52.2715 4.63542 49.4792 4.63542C45.8511 4.63542 42.8994 7.58474 42.8994 11.2128C42.8994 14.8409 45.8511 17.7902 49.4792 17.7902C52.0637 17.7902 54.4188 16.2684 55.4792 13.9133L55.5976 13.6476L52.9212 13.0341C52.9212 13.0341 52.8294 13.1887 52.798 13.2394C52.1 14.3916 50.8294 15.0993 49.4792 15.0993C47.3342 15.0993 45.5902 13.3553 45.5902 11.2128C45.5902 9.07026 47.3342 7.32628 49.4792 7.32628V7.32386Z" fill="white"/>
<path d="M69.8236 10.0581C69.3477 6.90109 66.5433 4.63052 63.3428 4.63052C59.7147 4.63052 56.763 7.57984 56.763 11.2079C56.763 14.836 59.7147 17.7829 63.3428 17.7829C65.925 17.7829 68.2632 16.2756 69.3284 13.9374L66.6061 13.319C65.8911 14.4205 64.6617 15.0944 63.3428 15.0944C61.6012 15.0944 60.0746 13.9253 59.6012 12.2756H69.8356C69.954 11.592 69.9009 10.5775 69.8236 10.0581ZM59.6978 9.86248C60.2534 8.35038 61.7099 7.31897 63.3452 7.31897C64.9805 7.31897 66.437 8.35038 66.995 9.86248H59.6978Z" fill="white"/>
<path d="M113.584 4.62566H110.894V17.2828H113.584V4.62566Z" fill="white"/>
<path d="M112.239 3.52179C113.212 3.52179 114 2.73341 114 1.76089C114 0.788379 113.212 0 112.239 0C111.267 0 110.478 0.788379 110.478 1.76089C110.478 2.73341 111.267 3.52179 112.239 3.52179Z" fill="white"/>
<path d="M83.442 17.3022H86.401L79.1569 0.753669H77.0289L70.0312 17.3022H72.7462L74.4419 13.2442H81.7488L83.4444 17.3022H83.442ZM80.7391 10.8359H75.4443L78.0917 4.5001L80.7391 10.8359Z" fill="white"/>
</svg>
