<svg width="24" height="21" viewBox="0 0 24 21" fill="none" xmlns="http://www.w3.org/2000/svg">
<path fill-rule="evenodd" clip-rule="evenodd" d="M11.7835 11.5233C11.9632 11.5233 12.1357 11.5947 12.2628 11.7218C12.3899 11.8489 12.4613 12.0214 12.4613 12.2011V19.6576C12.4613 19.8374 12.3899 20.0098 12.2628 20.137C12.1357 20.2641 11.9632 20.3355 11.7835 20.3355C11.6037 20.3355 11.4313 20.2641 11.3041 20.137C11.177 20.0098 11.1056 19.8374 11.1056 19.6576V12.2011C11.1056 12.0214 11.177 11.8489 11.3041 11.7218C11.4313 11.5947 11.6037 11.5233 11.7835 11.5233Z" fill="white"/>
<path fill-rule="evenodd" clip-rule="evenodd" d="M1.73703 5.61601C2.27932 7.31067 3.33679 9.01753 4.67218 10.0045C6.22585 11.1542 7.62767 11.5256 8.76377 11.4511C9.2823 11.4224 9.78962 11.2888 10.255 11.0584C10.7204 10.8279 11.1341 10.5053 11.4712 10.1102C12.0338 9.45001 12.2046 8.4671 11.9036 7.331C11.6027 6.19762 10.8421 4.97882 9.66668 3.97829C8.48178 2.96827 6.73424 2.06265 5.11551 1.6261C4.30749 1.40919 3.56998 1.31835 2.97074 1.36852C2.37151 1.41868 1.9892 1.60441 1.77228 1.85793C1.5391 2.13179 1.37505 2.60765 1.35879 3.295C1.34252 3.97016 1.46995 4.77546 1.73703 5.61601ZM0.00170217 3.26382C0.0220381 2.41649 0.224042 1.58543 0.739218 0.980778C1.27066 0.357144 2.05292 0.0873543 2.85551 0.0182123C3.66217 -0.0495741 4.56644 0.0765087 5.46664 0.319184C7.26569 0.803178 9.19624 1.79828 10.5452 2.94658C11.9036 4.10437 12.8323 5.55229 13.2119 6.98394C13.5915 8.41287 13.4342 9.89604 12.5015 10.9915C12.047 11.5243 11.4893 11.9597 10.8621 12.2715C10.2349 12.5832 9.55112 12.7648 8.85189 12.8054C7.33347 12.9044 5.62255 12.396 3.86552 11.0972C2.24272 9.89333 1.04832 7.91397 0.446381 6.02679C0.144053 5.07779 -0.0186337 4.12064 0.00170217 3.26111" fill="white"/>
<path fill-rule="evenodd" clip-rule="evenodd" d="M22.0058 9.52442C21.3429 11.0469 20.242 12.5192 18.9392 13.2364C15.9335 14.8904 13.8172 13.6296 13.0851 12.4623C12.7774 11.9701 12.7096 11.0605 13.0987 9.99485C13.4783 8.95772 14.2511 7.89483 15.4129 7.16681C16.61 6.41844 18.2803 5.89649 19.7594 5.74329C20.4982 5.66873 21.1517 5.68906 21.652 5.79752C22.1699 5.91005 22.4098 6.09171 22.4993 6.23407C22.6064 6.40489 22.6891 6.79262 22.6132 7.43117C22.54 8.04125 22.3339 8.77199 22.0058 9.52442ZM23.9581 7.5925C24.0475 6.85499 24.0042 6.08358 23.649 5.51417C23.2748 4.91765 22.605 4.61804 21.9394 4.47298C21.2547 4.32385 20.4481 4.31029 19.6211 4.3957C17.9698 4.56517 16.0935 5.14135 14.6944 6.0185C13.3776 6.84111 12.3691 8.07543 11.8257 9.52984C11.3606 10.8029 11.3186 12.1952 11.9355 13.1808C13.0553 14.969 15.9661 16.4196 19.5926 14.424C21.252 13.5103 22.5183 11.7437 23.249 10.0653C23.6191 9.21802 23.8672 8.35849 23.9594 7.5925" fill="white"/>
<path fill-rule="evenodd" clip-rule="evenodd" d="M10.5782 11.2695C9.71501 10.1877 8.71727 9.22047 7.60919 8.39126L6.63307 7.65917C6.56185 7.60576 6.50186 7.53885 6.4565 7.46225C6.41115 7.38565 6.38133 7.30087 6.36874 7.21275C6.35615 7.12462 6.36104 7.03488 6.38313 6.94865C6.40522 6.86242 6.44409 6.78138 6.4975 6.71016C6.55091 6.63895 6.61782 6.57895 6.69442 6.5336C6.77102 6.48824 6.8558 6.45842 6.94392 6.44583C7.03205 6.43324 7.12179 6.43813 7.20802 6.46023C7.29425 6.48232 7.37529 6.52118 7.44651 6.57459L8.42263 7.30668C9.61838 8.20553 10.7002 9.25215 11.6357 10.4221C11.7415 10.563 11.7883 10.7394 11.7663 10.9141C11.7442 11.0889 11.655 11.2482 11.5176 11.3583C11.3802 11.4684 11.2053 11.5207 11.0299 11.5041C10.8546 11.4876 10.6926 11.4034 10.5782 11.2695ZM13.6205 13.6976C14.4854 12.8333 15.445 12.0693 16.4811 11.42L17.567 10.7421C17.6425 10.6949 17.708 10.6333 17.7596 10.5609C17.8113 10.4884 17.8482 10.4064 17.8682 10.3197C17.8883 10.233 17.891 10.1431 17.8763 10.0553C17.8616 9.96753 17.8297 9.88349 17.7826 9.808C17.7354 9.73251 17.6738 9.66706 17.6013 9.61537C17.5289 9.56368 17.4469 9.52678 17.3602 9.50676C17.2734 9.48674 17.1836 9.48401 17.0958 9.49871C17.008 9.51341 16.924 9.54526 16.8485 9.59244L15.7639 10.2703C14.6404 10.9735 13.5999 11.8012 12.662 12.7377C12.5347 12.8648 12.4631 13.0373 12.463 13.2172C12.4629 13.3971 12.5342 13.5696 12.6613 13.6969C12.7884 13.8242 12.9609 13.8958 13.1408 13.8959C13.3206 13.896 13.4932 13.8247 13.6205 13.6976Z" fill="white"/>
</svg>
