<svg width="28" height="28" viewBox="0 0 28 28" fill="none" xmlns="http://www.w3.org/2000/svg">
<path d="M25 23C25 24.6569 23.6569 26 22 26H6C4.34315 26 3 24.6569 3 23V7C3 5.34315 4.34315 4 6 4H22C23.6569 4 25 5.34315 25 7V23ZM16.7679 8.87702C16.4929 8.82067 16.2142 8.95367 16.0897 9.2053C15.9558 9.47598 15.6668 9.63766 15.3666 9.60487C14.4576 9.50558 13.5404 9.50558 12.6314 9.60488C12.3312 9.63766 12.0424 9.47605 11.9086 9.20535C11.7842 8.95365 11.5052 8.821 11.2302 8.87769C10.4984 9.02856 9.78042 9.23919 9.0835 9.50746C8.56962 9.70528 8.13843 10.0723 7.85318 10.5433C6.36554 12.9997 5.79248 15.4099 5.80874 17.7905C5.81456 18.6424 6.26036 19.4317 6.9919 19.8684C7.75717 20.3253 8.56596 20.7064 9.40663 21.0056C9.77428 21.1365 10.1833 21.0024 10.3951 20.6746C10.4638 20.5682 10.5305 20.4606 10.5952 20.3517C10.7739 20.0506 10.6238 19.6703 10.3058 19.5238C10.1278 19.4419 9.95255 19.354 9.78035 19.2604C9.65323 19.1913 9.64562 19.0127 9.76066 18.9249C9.82044 18.8793 9.89922 18.8719 9.96766 18.903C12.5296 20.0687 15.4718 20.0686 18.0343 18.903C18.1024 18.872 18.1831 18.8828 18.242 18.9289C18.354 19.0169 18.3467 19.1926 18.2217 19.2607C18.0451 19.3569 17.8652 19.447 17.6825 19.5309C17.3704 19.6742 17.2231 20.0472 17.3983 20.3427C17.465 20.4551 17.5338 20.5662 17.6049 20.6759C17.8168 21.0031 18.2252 21.1369 18.5926 21.0066C19.435 20.7079 20.2453 20.3267 21.0118 19.8692C21.7423 19.4332 22.1879 18.6451 22.1933 17.7944C22.2106 15.1118 21.4727 12.7107 20.1402 10.5304C19.856 10.0653 19.4284 9.70385 18.9198 9.5078C18.2213 9.23853 17.5015 9.02735 16.7679 8.87702ZM11.2764 13.9795C12.1049 13.9795 12.7681 14.7189 12.7539 15.6211C12.7397 16.5233 12.1023 17.2559 11.2793 17.2559C10.4717 17.2557 9.80377 16.5226 9.80371 15.6211C9.80371 14.7196 10.4481 13.9797 11.2764 13.9795ZM16.7227 13.9795C17.5522 13.9795 18.2105 14.7189 18.1963 15.6211C18.182 16.5233 17.5462 17.2559 16.7227 17.2559C15.9134 17.2557 15.2491 16.5226 15.249 15.6211C15.249 14.7195 15.8932 13.9796 16.7227 13.9795Z" fill="white" fill-opacity="0.8"/>
</svg>
