<svg width="22" height="22" viewBox="0 0 22 22" fill="none" xmlns="http://www.w3.org/2000/svg">
<g clip-path="url(#clip0_4406_4315)">
<path d="M18.7792 11.1289C19.2801 10.5358 19.5551 9.78464 19.5553 9.00834C19.5538 8.11343 19.2005 7.25498 18.5718 6.61819C17.943 5.9814 17.0891 5.61732 16.1942 5.60449C15.7368 5.6046 15.2846 5.70253 14.8681 5.89171C15.0837 6.2392 15.2484 6.61581 15.357 7.01003C15.62 6.89036 15.9053 6.82787 16.1942 6.8267C16.7649 6.83945 17.308 7.07473 17.7076 7.48232C18.1072 7.88991 18.3316 8.43754 18.3331 9.00834C18.333 9.34917 18.248 9.68461 18.0858 9.9844C17.9236 10.2842 17.6894 10.5389 17.4042 10.7255C17.1266 10.9176 16.8073 11.0411 16.4726 11.0857C16.138 11.1303 15.7975 11.0948 15.4792 10.9822C16.0235 11.3229 16.5155 11.7407 16.9398 12.2227C17.1607 12.1746 17.3758 12.1029 17.5814 12.0089C19.2925 12.4427 20.7775 13.6772 20.7775 15.4433C20.7785 15.5902 20.7494 15.7358 20.692 15.871H18.3331C18.3334 16.2894 18.2546 16.7041 18.1009 17.0932H20.8692C21.5781 17.1116 21.9997 16.2744 21.9997 15.4616C21.9997 13.5672 20.6859 11.9233 18.7792 11.1289ZM1.30776 15.8894C1.25032 15.7541 1.2212 15.6085 1.22221 15.4616C1.22221 13.6955 2.70719 12.4611 4.41828 12.0272C4.61413 12.1192 4.8189 12.1909 5.02938 12.2411C5.46297 11.7568 5.96537 11.3388 6.52047 11.0005C6.2022 11.1132 5.86173 11.1486 5.52708 11.104C5.19242 11.0594 4.87314 10.936 4.5955 10.7439C4.3077 10.5555 4.07183 10.2979 3.90953 9.99467C3.74723 9.69143 3.6637 9.35227 3.66662 9.00834C3.66807 8.43754 3.89255 7.88991 4.29215 7.48232C4.69175 7.07473 5.23483 6.83945 5.80548 6.8267C6.09438 6.82787 6.37974 6.89036 6.64269 7.01003C6.75136 6.61581 6.916 6.2392 7.13158 5.89171C6.71508 5.70253 6.26294 5.6046 5.80548 5.60449C4.91066 5.61732 4.05675 5.9814 3.42796 6.61819C2.79918 7.25498 2.44593 8.11343 2.44441 9.00834C2.44465 9.78464 2.71958 10.5358 3.22051 11.1289C1.31387 11.9233 0 13.5672 0 15.4616C0 16.2744 0.421661 17.1116 1.13054 17.1116H3.89884C3.74507 16.7225 3.66628 16.3078 3.66662 15.8894H1.30776Z" fill="white"/>
<path d="M13.9572 10.8721C14.5796 10.1571 14.9225 9.24121 14.9228 8.29327C14.9262 7.24319 14.5168 6.23382 13.7829 5.48277C13.049 4.73173 12.0494 4.29916 10.9995 4.27832C9.9496 4.29916 8.94996 4.73173 8.21606 5.48277C7.48216 6.23382 7.07278 7.24319 7.0762 8.29327C7.07644 9.24121 7.41936 10.1571 8.04174 10.8721C5.81121 11.7827 4.27734 13.6893 4.27734 15.8893C4.27734 16.7876 4.73567 17.7226 5.49955 17.7226H16.4994C17.2633 17.7226 17.7216 16.7876 17.7216 15.8893C17.7216 13.6893 16.1877 11.7827 13.9572 10.8721ZM10.9995 5.50053C11.7252 5.52126 12.414 5.82501 12.9187 6.34686C13.4234 6.86872 13.704 7.56728 13.7006 8.29327C13.7001 8.71665 13.6003 9.13402 13.4093 9.51186C13.2183 9.88969 12.9413 10.2174 12.6006 10.4688C12.1381 10.814 11.5765 11.0005 10.9995 11.0005C10.4224 11.0005 9.86082 10.814 9.39839 10.4688C9.05769 10.2174 8.7807 9.88969 8.58966 9.51186C8.39862 9.13402 8.29887 8.71665 8.2984 8.29327C8.29492 7.56728 8.57552 6.86872 9.08024 6.34686C9.58496 5.82501 10.2738 5.52126 10.9995 5.50053ZM16.3589 16.5004H5.6401C5.54368 16.3114 5.4954 16.1014 5.49955 15.8893C5.49955 13.8054 7.20453 12.3388 9.20284 11.7827C9.75756 12.0719 10.3739 12.2229 10.9995 12.2229C11.6251 12.2229 12.2414 12.0719 12.7961 11.7827C14.7944 12.3388 16.4994 13.8054 16.4994 15.8893C16.5036 16.1014 16.4553 16.3114 16.3589 16.5004Z" fill="white"/>
</g>
<defs>
<clipPath id="clip0_4406_4315">
<rect width="21.9997" height="21.9997" fill="white"/>
</clipPath>
</defs>
</svg>
