<svg width="20" height="16" viewBox="0 0 20 16" fill="none" xmlns="http://www.w3.org/2000/svg">
<path d="M20 6.9088C20 11.9211 15.9776 16 11.0347 16L11.0368 15.9979H5.44214V14.4821C5.44214 9.49867 8.55147 6.25067 12.5973 5.0816C12.5973 5.0816 12.1515 4.60374 12.0032 4.4448C11.9008 4.33387 11.9925 4.1568 12.1408 4.17387L14.5899 4.464C14.6965 4.4768 14.7424 4.6048 14.6688 4.6816L12.9792 6.47787C12.8768 6.58774 12.6944 6.50987 12.6997 6.36054C12.7083 6.1056 12.6763 5.31094 12.6763 5.31094C11.0475 5.87734 8.09174 8.17707 8.09174 13.3131H11.0325C14.5173 13.3131 17.3515 10.4384 17.3515 6.9056V2.68373H12.6165C7.11787 2.68373 2.64427 7.22027 2.64427 12.7957V15.9989H0V12.7957C0 5.7408 5.6608 0 12.6187 0H20V6.9088Z" fill="black"/>
</svg>
